<?xml version="1.0" standalone="no"?><!DOCTYPE svg PUBLIC "-//W3C//DTD SVG 1.1//EN" "http://www.w3.org/Graphics/SVG/1.1/DTD/svg11.dtd"><svg t="1779770441819" class="icon" viewBox="0 0 1024 1024" version="1.1" xmlns="http://www.w3.org/2000/svg" p-id="5049" xmlns:xlink="http://www.w3.org/1999/xlink" width="200" height="200"><path d="M789.333333 53.333333A117.333333 117.333333 0 0 1 906.666667 170.666667v85.333333c0 21.077333 0.213333 47.274667-9.642667 76.8-9.941333 29.866667-29.184 60.586667-63.744 95.146667-32.341333 32.384-67.712 65.024-95.189333 91.221333-13.952 13.312-25.813333 24.832-34.730667 34.218667-4.437333 4.693333-7.893333 8.533333-10.368 11.562666-2.730667 3.370667-3.285333 4.522667-3.029333 4.010667-8.362667 16.768-17.962667 42.794667-17.962667 92.373333V768c0 43.733333-23.466667 82.133333-52.821333 111.146667-29.696 29.312-68.650667 52.352-107.392 65.749333-37.930667 13.141333-80.64 18.688-116.224 6.357333a93.098667 93.098667 0 0 1-47.445334-35.413333c-11.946667-17.493333-17.450667-38.826667-17.450666-62.506667v-149.333333c0-64.938667-3.029333-95.829333-6.4-111.530667a42.496 42.496 0 0 0-3.712-11.52c-1.706667-3.157333-0.981333-1.28-5.845334-8.533333-8.362667-12.544-40.362667-60.8-123.989333-144.469333-42.88-42.88-67.498667-72.661333-80.64-98.986667-14.336-28.586667-14.08-51.370667-14.08-72.96V170.666667A117.333333 117.333333 0 0 1 213.333333 53.333333h576zM213.333333 117.333333c-29.44 0-53.333333 23.893333-53.333333 53.333334v85.333333c0 21.034667 0.256 30.336 7.253333 44.373333 8.192 16.341333 26.282667 39.893333 68.693334 82.346667 87.04 86.997333 121.6 138.581333 132.010666 154.197333 0.896 1.365333 1.152 1.621333 3.114667 4.437334 1.578667 2.218667 3.626667 5.162667 5.632 8.874666 4.224 7.722667 7.509333 16.768 10.069333 28.714667 4.949333 22.869333 7.893333 59.605333 7.893334 125.056V853.333333c0 13.653333 3.157333 21.674667 6.4 26.453334a29.184 29.184 0 0 0 15.36 10.965333c16.426667 5.674667 43.093333 4.522667 74.453333-6.314667a228.394667 228.394667 0 0 0 83.285333-50.901333c22.613333-22.314667 33.834667-45.269333 33.834667-65.536v-106.666667c0-59.221333 11.776-95.061333 24.746667-120.96 5.12-10.24 15.146667-21.546667 24.234666-31.061333 10.069333-10.666667 22.912-23.125333 36.949334-36.48 28.501333-27.136 62.464-58.453333 94.122666-90.112 29.44-29.44 42.197333-52.053333 48.213334-70.186667 6.186667-18.474667 6.4-34.986667 6.4-56.533333V170.666667c0-29.44-23.893333-53.333333-53.333334-53.333334H213.333333z m682.666667 661.333334a32 32 0 0 1 0 64h-170.666667a32 32 0 0 1 0-64h170.666667z m0-128a32 32 0 0 1 0 64h-128a32 32 0 0 1 0-64h128z m0-128a32 32 0 0 1 0 64h-85.333333a32 32 0 0 1 0-64h85.333333z" fill="#212121" p-id="5050"></path></svg>